<svg width="64" height="64" viewBox="0 0 64 64" fill="none" xmlns="http://www.w3.org/2000/svg">
<path d="M22.6331 27.2259C22.2056 26.8763 21.5756 26.9394 21.2259 27.3669C20.8763 27.7944 20.9394 28.4244 21.3669 28.7741L22.6331 27.2259ZM32.3923 36.5L31.7592 37.2741C32.1275 37.5753 32.6571 37.5753 33.0254 37.2741L32.3923 36.5ZM43.4178 28.7741C43.8453 28.4244 43.9084 27.7944 43.5587 27.3669C43.2091 26.9394 42.579 26.8763 42.1515 27.2259L43.4178 28.7741ZM21.3669 28.7741L31.7592 37.2741L33.0254 35.7259L22.6331 27.2259L21.3669 28.7741ZM42.1515 27.2259L31.7592 35.7259L33.0254 37.2741L43.4178 28.7741L42.1515 27.2259Z" fill="#C1C1C1"/>
</svg>
